<?xml version="1.0" encoding="UTF-8" standalone="no"?>
<svg
   xmlns:dc="http://purl.org/dc/elements/1.1/"
   xmlns:cc="http://creativecommons.org/ns#"
   xmlns:rdf="http://www.w3.org/1999/02/22-rdf-syntax-ns#"
   xmlns:svg="http://www.w3.org/2000/svg"
   xmlns="http://www.w3.org/2000/svg"
   xmlns:sodipodi="http://sodipodi.sourceforge.net/DTD/sodipodi-0.dtd"
   xmlns:inkscape="http://www.inkscape.org/namespaces/inkscape"
   version="1.1"
   id="layer"
   x="0px"
   y="0px"
   viewBox="0 0 600 246.89999"
   xml:space="preserve"
   sodipodi:docname="sfgate-vector-logo-2022.svg"
   width="600"
   height="246.89999"
   inkscape:version="1.0.2 (e86c870879, 2021-01-15, custom)"><metadata
   id="metadata10"><rdf:RDF><cc:Work
       rdf:about=""><dc:format>image/svg+xml</dc:format><dc:type
         rdf:resource="http://purl.org/dc/dcmitype/StillImage" /></cc:Work></rdf:RDF></metadata><defs
   id="defs8" /><sodipodi:namedview
   pagecolor="#ffffff"
   bordercolor="#666666"
   borderopacity="1"
   objecttolerance="10"
   gridtolerance="10"
   guidetolerance="10"
   inkscape:pageopacity="0"
   inkscape:pageshadow="2"
   inkscape:window-width="973"
   inkscape:window-height="643"
   id="namedview6"
   showgrid="false"
   inkscape:zoom="1.1273006"
   inkscape:cx="305"
   inkscape:cy="2718.9585"
   inkscape:window-x="34"
   inkscape:window-y="159"
   inkscape:window-maximized="0"
   inkscape:current-layer="layer" />
<style
   type="text/css"
   id="style2">
	.st0{fill:#FF1D46;}
</style>
<path
   id="Combined-Shape"
   class="st0"
   d="m 62.3,0 c 25.4,0 38.8,12.5 39.2,37.8 v 54.9 h -41 V 43.3 c 0,-5.1 -2.3,-7.4 -6.5,-7.4 h -4.6 c -5.1,0 -6.9,2.3 -7.4,6.9 v 34.6 c -0.6,6.1 2,12 6.9,15.7 l 0.9,0.5 34.2,25.8 c 12.9,9.7 17.5,18.5 18,35.1 v 53.2 c 0,25.8 -12.5,38.8 -37.8,39.2 h -25 C 13.4,246.9 0.4,234.4 0,209.1 v -61.4 h 41.5 v 55.4 c 0,5.1 1.8,7.4 6.5,7.4 h 4.6 c 5.1,0 6.9,-2.3 7.4,-6.9 v -39.7 c 0.6,-6.1 -2,-12 -6.9,-15.7 L 52.2,147.7 18,121.8 C 4.6,112.1 0.5,102.9 0,86.7 V 39.2 C 0,13.4 12.5,0.4 37.8,0 Z m 205.4,0 c 25.8,0 38.8,12.5 39.2,37.8 V 94.6 H 265.4 V 43.8 c 0,-5.1 -2.3,-7.4 -6.5,-7.4 H 252 c -3.6,-0.4 -6.9,2.2 -7.4,5.9 0,0.4 -0.1,0.7 0,1.1 v 160.2 c 0,5.1 2.3,7.4 6.5,7.4 h 7.8 c 5.1,0 7.4,-2.3 7.4,-6.9 v -58.2 h -12.9 v -35.5 h 54.5 v 96.5 c 0,25.8 -12.5,38.8 -37.8,39.2 h -28.2 c -25.8,0 -38.8,-12.5 -39.2,-37.8 V 39.2 C 202.7,13.4 215.2,0.4 240.5,0 Z M 190.6,1.8 180,39.2 h -23.5 v 65.5 h 33.2 v 37.4 h -33.2 v 102 h -42 V 1.8 Z m 209.1,0 27.7,242.3 h -42 l -3.7,-35.5 h -25.8 l -3.2,35.5 H 314.4 L 342,1.8 Z m 112.6,0 V 39.2 H 486.9 V 244.1 H 444.4 V 39.2 H 419 V 1.8 Z m 86.8,0 -10.6,37.4 H 565 v 63.2 h 34.6 v 37.4 H 565 v 66.5 h 35 l -8.8,37.8 H 522.9 V 1.8 Z m -230.3,58.7 -9.7,111.7 h 19.8 z" />
</svg>
