<svg id="Layer_1" data-name="Layer 1" xmlns="http://www.w3.org/2000/svg" viewBox="0 0 900 180">
    <title>glitched</title>
    <g transform="translate(1 1)">
        <path
            d="M134.4 115.1c0 9.3-1.7 17.9-5.2 25.9-3.5 7.9-8.3 14.7-14.6 20.4-6.2 5.7-13.4 10-21.6 12.9-8.2 3-16.8 4.4-26 4.4s-23.3-2.6-33.6-7.9c-10.3-5.3-18.5-12.7-24.4-22.4-6-9.7-8.9-20.8-8.9-33.3V.2h43.5v113.9c0 8.1 2.1 14.4 6.3 19 4.2 4.6 9.9 6.9 17.2 6.9s8.9-1 12.5-3c3.7-2 6.5-5 8.4-8.9 1.9-3.9 2.9-8.5 2.9-14V.2h43.5v114.9Zm153.5-57.9c0 10-2.4 19.3-7.1 27.9-4.7 8.7-11.6 15.7-20.7 21-9.1 5.3-20 8-32.7 8h-26.6v63.2h-43.5V.2h70.1c12.7 0 23.6 2.7 32.6 8 9.1 5.3 16 12.3 20.7 20.9 4.7 8.7 7.1 18 7.1 28.1m-43.4.1c0-3.1-.8-6.1-2.3-8.8-1.5-2.7-3.7-4.9-6.6-6.6-2.9-1.7-6.2-2.5-10-2.5h-24.7v35.7h24.7c3.8 0 7.2-.8 10-2.5 2.9-1.7 5.1-3.8 6.6-6.5s2.3-5.6 2.3-8.8m198.5 120h-50.3l-31.4-65.9h-14.7v65.9H303V.2h70.1c12.7 0 23.6 2.7 32.6 8 9.1 5.3 16 12.3 20.7 20.9 4.7 8.7 7.1 18 7.1 28.1s-2.8 20.6-8.4 28.5-12.4 13.8-20.4 17.8l38.2 73.8ZM390 57.3c0-3.1-.8-6.1-2.3-8.8-1.5-2.7-3.7-4.9-6.6-6.6-2.9-1.7-6.2-2.5-10-2.5h-24.7v35.7h24.7c3.8 0 7.2-.8 10-2.5 2.9-1.7 5.1-3.8 6.6-6.5s2.3-5.6 2.3-8.8m193.2 31.5v6c0 9.9-.3 18.4-1 25.5-.7 7.1-2.3 14-4.9 20.6-2.6 6.6-6.6 12.6-11.9 18-6.6 6.6-13.8 11.5-21.7 14.9-7.9 3.4-17.2 5-27.8 5s-13.7-.8-19.5-2.2c-5.8-1.5-11.1-3.7-16-6.6-4.9-2.9-9.5-6.6-13.9-11.1-7.8-7.8-12.7-16.6-14.8-26.5-2.1-9.9-3.2-22.4-3.2-37.6V82.9c0-15.2 1.1-27.8 3.2-37.7 2.1-9.9 7-18.8 14.8-26.5 6.7-6.7 14-11.7 21.8-14.9 7.8-3.2 17-4.9 27.6-4.9s19.9 1.6 27.8 4.9c7.8 3.3 15.1 8.2 21.7 14.9 5.3 5.3 9.3 11.4 11.9 18 2.6 6.7 4.2 13.6 4.9 20.7.7 7.1 1 15.6 1 25.5v6Zm-43.5 0c0-15.1-.5-25.3-1.5-30.8s-2.7-9.7-4.9-12.6c-1.6-2.3-4-4.1-7.1-5.6-3.1-1.5-6.6-2.2-10.4-2.2s-7.1.7-10.1 2.1c-3 1.4-5.4 3.3-7.3 5.6-1.5 1.9-2.7 4.2-3.6 6.9-.9 2.7-1.6 6.9-2.1 12.5s-.7 13.7-.7 24.1.2 18.4.7 24c.5 5.6 1.2 9.8 2.1 12.4.9 2.7 2.1 4.9 3.6 6.8 4.1 5.3 9.9 8 17.4 8s13.4-2.7 17.5-8c2.3-3.2 3.9-7.4 4.9-12.7 1-5.3 1.5-15.5 1.5-30.5"/>
        <path d="M736.7 177.3h-49.6l-29.2-54.5-29 54.5h-49.8l55.3-90.8L582.6.2H632l25.9 49.9L683.8.2h49.5l-51.7 86.3 55.1 90.8zm161.2 0h-49.7l-29.1-54.5-29.1 54.5h-49.8l55.3-90.8L743.8.2h49.4l25.9 49.9L844.9.2h49.6l-51.8 86.3 55.2 90.8z"/>
    </g>
</svg>